<svg xmlns="http://www.w3.org/2000/svg" width="524" height="768" viewBox="0 0 524 768">
  <g id="hero-image" transform="translate(-1059 -139)">
    <ellipse id="Ellipse_2" data-name="Ellipse 2" cx="62.5" cy="61.5" rx="62.5" ry="61.5" transform="translate(1321 531)" fill="#ff64cb"/>
    <path id="Path_7" data-name="Path 7" d="M69.5,90.158C112.595,72.553,139,31.116,139,69.5v2a69.5,69.5,0,0,1-139,0v-2C0,31.116,26.405,107.763,69.5,90.158Z" transform="translate(1274.5 245.5)" fill="#6e00ff"/>
    <rect id="Rectangle_19" data-name="Rectangle 19" width="131" height="128" rx="23" transform="translate(1059 651)" fill="#fff" opacity="0.53"/>
    <path id="Path_8" data-name="Path 8" d="M77.136,91.459c42.6,0,77.136-61.326,77.136-21.457v2.077c0,39.869-34.535,72.189-77.136,72.189S0,111.948,0,72.079V70C0,30.133,34.535,91.459,77.136,91.459Z" transform="translate(1250 110.469)" fill="#fff"/>
    <circle id="Ellipse_3" data-name="Ellipse 3" cx="28" cy="28" r="28" transform="translate(1288 139)" fill="#fff"/>
    <rect id="Rectangle_16" data-name="Rectangle 16" width="131" height="128" rx="23" transform="translate(1321 405)" fill="#6e00ff"/>
    <rect id="Rectangle_17" data-name="Rectangle 17" width="131" height="128" rx="23" transform="translate(1452 521)" fill="#6e00ff" opacity="0.74"/>
    <rect id="Rectangle_18" data-name="Rectangle 18" width="131" height="128" rx="23" transform="translate(1190 523)" fill="#fff"/>
    <rect id="Rectangle_20" data-name="Rectangle 20" width="131" height="128" rx="23" transform="translate(1321 656)" fill="#6e00ff"/>
    <ellipse id="Ellipse_5" data-name="Ellipse 5" cx="62.5" cy="61.5" rx="62.5" ry="61.5" transform="translate(1193 656)" fill="#23dbfd"/>
    <rect id="Rectangle_21" data-name="Rectangle 21" width="131" height="128" rx="23" transform="translate(1190 779)" fill="#fff"/>
  </g>
</svg>
